#!OML:ASF H:\Terrain\Patient Classification 1\Animal1\Tuesday\Animal1.ASF
:FULLY-SPECIFIED
:DEGREES
2150
root 8.31644 16.5257 -4.77134 -348.836 -14.966 359.983
lowerback -4.81015 -1.759 1.57768
upperback -7.09495 -2.40847 0.275876
thorax -4.70017 -1.29371 -0.608137
lowerneck -3.77575 -6.01284 -9.85268
upperneck 6.98623 -9.01062 17.7188
head 3.96012 -4.112 6.64464
rclavicle -4.71865e-014 -2.36554e-014
rhumerus -36.6495 3.23071 -86.0068
rradius 27.5576
rwrist -2.03357
rhand -2.32266 19.2413
rfingers 7.12502
rthumb 23.3639 -9.36064
lclavicle -4.71865e-014 -2.36554e-014
lhumerus -37.5304 9.33112 86.3774
lradius 30.948
lwrist -28.4602
lhand 15.3508 39.5308
lfingers 7.12502
lthumb 40.1817 -655.298
rfemur -23.8824 34.7772 13.279
rtibia 28.5426
rfoot -11.1224 -34.7123
rtoes -0.284138
lfemur -16.863 -43.1548 -14.6626
ltibia 25.7613
lfoot -30.3145 39.6341
ltoes 16.515
2151
root 8.32843 16.5292 -4.77603 -348.766 -15.0906 360.12
lowerback -4.84133 -1.77521 1.36464
upperback -7.11727 -2.42987 0.216049
thorax -4.69971 -1.29608 -0.551975
lowerneck -3.4962 -6.15152 -10.0859
upperneck 6.42736 -9.18861 18.3141
head 3.81439 -4.21784 6.8717
rclavicle 2.45685e-014 2.08724e-015
rhumerus -36.7211 2.63863 -85.8372
rradius 27.2541
rwrist -1.77955
rhand -2.42017 20.652
rfingers 7.12502
rthumb 23.2703 -7.96181
lclavicle 2.45685e-014 2.08724e-015
lhumerus -37.2414 7.71406 87.4185
lradius 31.0551
lwrist -28.0527
lhand 14.4982 39.586
lfingers 7.12502
lthumb 39.3791 -655.004
rfemur -24.0412 34.8786 12.9535
rtibia 28.4172
rfoot -11.2487 -34.7279
rtoes -0.445456
lfemur -17.0817 -42.6002 -14.7881
ltibia 25.8833
lfoot -26.0634 40.7731
ltoes 8.34968
2152
root 8.33841 16.5307 -4.77983 -348.662 -15.2898 359.987
lowerback -4.84268 -1.78198 1.35945
upperback -7.11539 -2.43904 0.228443
thorax -4.69635 -1.30026 -0.536397
lowerneck -3.46445 -6.28376 -10.0211
upperneck 6.16011 -9.36991 18.5998
head 3.76992 -4.30753 6.9401
rclavicle -1.98474e-014 -1.51076e-014
rhumerus -36.849 2.54372 -86.0054
rradius 27.1573
rwrist -2.19652
rhand -3.52765 21.2177
rfingers 7.12502
rthumb 22.2075 -7.52653
lclavicle -1.98474e-014 -1.51076e-014
lhumerus -37.1724 6.337 88.2328
lradius 31.3369
lwrist -28.2697
lhand 14.1532 39.3606
lfingers 7.12502
lthumb 39.0539 -655.135
rfemur -24.1668 35.0822 12.9353
rtibia 28.2943
rfoot -10.9092 -34.7333
rtoes -0.54594
lfemur -17.1995 -42.2461 -14.6769
ltibia 26.0053
lfoot -31.0325 38.7077
ltoes 19.0518
2153
root 8.34869 16.5278 -4.77455 -348.613 -15.5724 359.647
lowerback -4.89577 -1.7722 1.59923
upperback -7.04565 -2.42968 0.277383
thorax -4.60126 -1.30514 -0.622934
lowerneck -3.47021 -6.3764 -9.86294
upperneck 6.09531 -9.51517 18.7426
head 3.77409 -4.37363 6.94786
rclavicle -2.56898e-014 -1.18277e-014
rhumerus -36.9346 2.45677 -86.2188
rradius 26.9524
rwrist -2.45539
rhand -4.51749 21.2514
rfingers 7.12502
rthumb 21.2569 -7.60299
lclavicle -2.56898e-014 -1.18277e-014
lhumerus -37.0595 4.8476 88.9336
lradius 31.4959
lwrist -28.5113
lhand 14.0553 38.6412
lfingers 7.12502
lthumb 38.9616 -655.828
rfemur -24.165 35.3757 13.1816
rtibia 28.2009
rfoot -10.118 -34.8014
rtoes -2.11503
lfemur -17.098 -42.2749 -14.4893
ltibia 26.1013
lfoot -24.9626 41.4132
ltoes 5.47717
2154
root 8.36052 16.5253 -4.76888 -348.596 -15.8937 359.388
lowerback -4.99037 -1.70254 1.8033
upperback -6.94795 -2.34189 0.298588
thorax -4.4508 -1.26885 -0.719856
lowerneck -3.29836 -6.54807 -10.0442
upperneck 5.83404 -9.76148 19.1975
head 3.73894 -4.50413 7.1133
rclavicle 2.17359e-014 1.31695e-015
rhumerus -37.0053 2.27283 -86.2724
rradius 26.7728
rwrist -2.51592
rhand -4.87546 21.2755
rfingers 7.12502
rthumb 20.9131 -7.61721
lclavicle 2.17359e-014 1.31695e-015
lhumerus -36.7227 2.91096 89.8516
lradius 31.5128
lwrist -28.5566
lhand 13.954 38.3302
lfingers 7.12502
lthumb 38.8662 -656.112
rfemur -24.2408 35.6012 13.3102
rtibia 28.2209
rfoot -9.66316 -34.775
rtoes -4.50215
lfemur -16.9527 -42.3609 -14.4027
ltibia 26.0848
lfoot -28.7709 40.5312
ltoes 12.7236
2155
root 8.37504 16.5257 -4.76405 -348.782 -16.1162 359.686
lowerback -5.06179 -1.66797 1.49085
upperback -6.80983 -2.29496 0.172948
thorax -4.25522 -1.23174 -0.680764
lowerneck -3.13943 -6.78266 -10.27
upperneck 5.41934 -10.0742 19.725
head 3.68052 -4.67173 7.30456
rclavicle -2.26319e-014 3.65267e-015
rhumerus -37.0586 2.07598 -86.2901
rradius 26.755
rwrist -2.69658
rhand -5.57238 21.2387
rfingers 7.12502
rthumb 20.2434 -7.72642
lclavicle -2.26319e-014 3.65267e-015
lhumerus -36.4227 1.23829 90.7718
lradius 31.7591
lwrist -29.0519
lhand 13.7482 39.2995
lfingers 7.12502
lthumb 38.672 -655.087
rfemur -24.2336 35.709 12.9398
rtibia 28.3613
rfoot -9.95262 -34.7323
rtoes -5.00723
lfemur -16.6539 -42.4505 -14.9614
ltibia 25.9479
lfoot -27.4354 41.0874
ltoes 10.4307
2156
root 8.38706 16.5225 -4.75472 -349.232 -16.3 360.284
lowerback -4.9942 -1.73742 0.841018
upperback -6.64579 -2.37809 0.00470193
thorax -4.10119 -1.24617 -0.494438
lowerneck -3.02438 -6.94159 -10.4826
upperneck 5.17476 -10.3056 20.2423
head 3.66774 -4.79218 7.49622
rclavicle -1.59602e-014 1.14177e-014
rhumerus -37.1524 1.96015 -86.3437
rradius 26.7151
rwrist -2.77182
rhand -6.12167 21.3831
rfingers 7.12502
rthumb 19.7154 -7.63705
lclavicle -1.59602e-014 1.14177e-014
lhumerus -36.3822 -0.174965 91.5351
lradius 32.2486
lwrist -29.7458
lhand 13.6526 40.7121
lfingers 7.12502
lthumb 38.5819 -653.649
rfemur -23.9441 35.766 12.4704
rtibia 28.5775
rfoot -10.3741 -34.7239
rtoes -4.49352
lfemur -15.9828 -42.4883 -16.0454
ltibia 25.7246
lfoot -27.018 41.3551
ltoes 8.90726
2157
root 8.39749 16.5188 -4.74975 -349.343 -16.3829 360.527
lowerback -5.06291 -1.83242 0.528137
upperback -6.57978 -2.50006 -0.043462
thorax -3.98354 -1.29414 -0.375261
lowerneck -3.00343 -7.10368 -10.7172
upperneck 5.15727 -10.5648 20.6874
head 3.74095 -4.91554 7.66287
rclavicle 3.30122e-014 1.33714e-014
rhumerus -37.1887 1.80137 -86.3295
rradius 26.5209
rwrist -2.5265
rhand -6.13471 21.439
rfingers 7.12502
rthumb 19.7029 -7.58246
lclavicle 3.30122e-014 1.33714e-014
lhumerus -36.4212 -1.90565 92.3391
lradius 32.7374
lwrist -30.1386
lhand 13.886 41.657
lfingers 7.12502
lthumb 38.8021 -652.767
rfemur -23.9803 35.618 12.2335
rtibia 28.8045
rfoot -10.5995 -34.669
rtoes -4.77686
lfemur -15.7492 -42.4847 -16.436
ltibia 25.4831
lfoot -27.1428 41.4399
ltoes 8.28035
2158
root 8.40724 16.5239 -4.7575 -348.771 -16.2445 360.513
lowerback -5.62135 -1.94343 0.469324
upperback -6.68488 -2.65011 -0.0131964
thorax -3.77953 -1.36754 -0.332502
lowerneck -2.92243 -7.30785 -10.8277
upperneck 5.04388 -10.8645 20.9982
head 3.76952 -5.06665 7.76182
rclavicle 1.30546e-014 1.30421e-014
rhumerus -37.1688 1.5418 -86.2537
rradius 26.272
rwrist -2.10648
rhand -6.22439 21.4524
rfingers 7.12502
rthumb 19.6166 -7.57793
lclavicle 1.30546e-014 1.30421e-014
lhumerus -36.4134 -3.40923 93.0193
lradius 33.0712
lwrist -30.5715
lhand 13.5822 41.434
lfingers 7.12502
lthumb 38.5155 -652.909
rfemur -24.8103 35.4072 11.794
rtibia 28.9303
rfoot -10.7408 -34.7341
rtoes -4.86368
lfemur -16.6339 -42.3545 -15.7974
ltibia 25.3473
lfoot -29.0653 40.4564
ltoes 13.2462
2159
root 8.41894 16.5222 -4.75071 -348.933 -16.4942 360.335
lowerback -5.62802 -1.90957 0.601741
upperback -6.552 -2.60752 -0.010877
thorax -3.6417 -1.35077 -0.406486
lowerneck -2.62949 -7.42799 -11.0334
upperneck 4.81182 -11.0607 21.5469
head 3.73086 -5.18088 7.9741
rclavicle 2.87213e-014 2.23633e-016
rhumerus -37.3661 1.48157 -86.2767
rradius 26.251
rwrist -1.94199
rhand -6.4068 21.6634
rfingers 7.12502
rthumb 19.4413 -7.38464
lclavicle 2.87213e-014 2.23633e-016
lhumerus -36.4137 -4.83038 93.6131
lradius 33.2842
lwrist -30.7857
lhand 12.8284 40.761
lfingers 7.12502
lthumb 37.8038 -653.387
rfemur -24.5843 35.5788 12.0334
rtibia 28.8997
rfoot -10.0734 -34.7111
rtoes -6.01261
lfemur -16.2327 -42.7292 -15.9384
ltibia 25.3787
lfoot -30.8299 40.2289
ltoes 17.4164
2160
root 8.43244 16.5214 -4.74795 -349.045 -16.7551 360.161
lowerback -5.58622 -1.86977 0.755702
upperback -6.44955 -2.55781 -0.00742195
thorax -3.56367 -1.33132 -0.4885
lowerneck -2.4446 -7.52085 -11.3104
upperneck 4.66647 -11.2305 22.1639
head 3.74237 -5.27342 8.22149
rclavicle 1.82851e-014 -1.16538e-014
rhumerus -37.5938 1.55644 -86.3162
rradius 26.3257
rwrist -1.99653
rhand -6.63471 21.6709
rfingers 7.12502
rthumb 19.2221 -7.39913
lclavicle 1.82851e-014 -1.16538e-014
lhumerus -36.3877 -6.28587 94.1671
lradius 33.5425
lwrist -31.0239
lhand 12.4214 40.3068
lfingers 7.12502
lthumb 37.4191 -653.738
rfemur -24.4136 35.7495 12.2069
rtibia 28.775
rfoot -9.25636 -34.6575
rtoes -6.46437
lfemur -15.9911 -42.9959 -16.0223
ltibia 25.5033
lfoot -29.6314 41.0933
ltoes 14.5852
2161
root 8.44426 16.5245 -4.76361 -348.947 -16.7224 360.093
lowerback -5.50868 -1.92593 0.741099
upperback -6.43782 -2.63111 0.0209925
thorax -3.59375 -1.36667 -0.450023
lowerneck -2.41183 -7.72052 -11.4399
upperneck 4.53828 -11.5233 22.5194
head 3.78393 -5.41957 8.33803
rclavicle 1.09704e-014 2.11209e-015
rhumerus -37.6361 1.54685 -86.2404
rradius 26.2757
rwrist -2.06311
rhand -6.43006 21.3369
rfingers 7.12502
rthumb 19.4189 -7.71346
lclavicle 1.09704e-014 2.11209e-015
lhumerus -36.3804 -7.45314 94.6184
lradius 33.9557
lwrist -31.4758
lhand 12.0967 40.1578
lfingers 7.12502
lthumb 37.1122 -653.807
rfemur -24.5917 35.8537 12.0958
rtibia 28.6753
rfoot -9.45141 -34.7221
rtoes -4.96164
lfemur -16.2843 -42.7822 -15.8223
ltibia 25.603
lfoot -27.5237 41.6628
ltoes 9.80108
2162
root 8.45418 16.527 -4.77454 -348.845 -16.7718 359.981
lowerback -5.47962 -1.94706 0.756694
upperback -6.40692 -2.65895 0.0426412
thorax -3.57766 -1.38051 -0.43665
lowerneck -2.36349 -7.92966 -11.5108
upperneck 4.31308 -11.818 22.8957
head 3.79491 -5.5706 8.45124
rclavicle -3.76417e-014 -2.33572e-015
rhumerus -37.6875 1.46038 -86.1516
rradius 26.2612
rwrist -2.10699
rhand -6.02648 21.2269
rfingers 7.12502
rthumb 19.8069 -7.78389
lclavicle -3.76417e-014 -2.33572e-015
lhumerus -36.4531 -8.72499 95.0583
lradius 34.5
lwrist -31.6323
lhand 11.8505 40.4012
lfingers 7.12502
lthumb 36.8793 -653.503
rfemur -24.7656 35.9821 12.0444
rtibia 28.6194
rfoot -9.86993 -34.7516
rtoes -4.25472
lfemur -16.4688 -42.2912 -15.6587
ltibia 25.6576
lfoot -26.7242 41.601
ltoes 8.59844
2163
root 8.46428 16.5259 -4.77546 -348.924 -16.8996 360.061
lowerback -5.45781 -1.97833 0.634516
upperback -6.33928 -2.6983 -0.0152067
thorax -3.51652 -1.39605 -0.429815
lowerneck -2.18674 -8.0777 -11.5864
upperneck 3.98668 -12.0241 23.3443
head 3.74473 -5.69021 8.60391
rclavicle 4.99446e-015 1.04362e-015
rhumerus -37.8791 1.28609 -86.0761
rradius 26.3567
rwrist -2.02323
rhand -6.21959 21.203
rfingers 7.12502
rthumb 19.6213 -7.82684
lclavicle 4.99446e-015 1.04362e-015
lhumerus -36.588 -10.0434 95.407
lradius 34.9483
lwrist -31.8179
lhand 11.8632 40.5437
lfingers 7.12502
lthumb 36.8913 -653.364
rfemur -24.7188 36.0242 11.9385
rtibia 28.6048
rfoot -9.85116 -34.7623
rtoes -4.80929
lfemur -16.3705 -42.1716 -15.8724
ltibia 25.663
lfoot -27.7598 41.2311
ltoes 11.4609
2164
root 8.4744 16.5241 -4.76886 -348.943 -17.1692 360.17
lowerback -5.60392 -2.00391 0.480286
upperback -6.2988 -2.72962 -0.041323
thorax -3.38693 -1.40609 -0.378349
lowerneck -1.88893 -8.17814 -11.6885
upperneck 3.7054 -12.164 23.6594
head 3.66665 -5.78704 8.72825
rclavicle -5.31935e-014 -5.86415e-015
rhumerus -38.1127 1.28549 -86.0117
rradius 26.4425
rwrist -2.0927
rhand -6.44656 20.7566
rfingers 7.12502
rthumb 19.403 -8.29538
lclavicle -5.31935e-014 -5.86415e-015
lhumerus -36.7076 -10.7785 95.5881
lradius 35.1019
lwrist -32.2813
lhand 12.0357 39.8436
lfingers 7.12502
lthumb 37.0545 -654.106
rfemur -24.7975 36.0739 11.7288
rtibia 28.6272
rfoot -9.33763 -34.6819
rtoes -6.31922
lfemur -16.2937 -42.435 -16.0881
ltibia 25.6407
lfoot -29.4798 41.0491
ltoes 14.416
